# xmcd CD database file
# Copyright (C) 1996 Ti Kan
#
# Track frame offsets:
# 	150
# 	19637
# 	36800
# 	49477
# 	64990
# 	81492
# 	95797
# 	110957
# 	127075
# 	143155
# 	156132
# 	170805
#
# Disc length: 2471 seconds
#
# Revision: 1
# Processed by: cddbd v1.4b41PL1 Copyright (c) Steve Scherf et al.
# Submitted via: DiscPlay 3.4
#
DISCID=b809a50c
DTITLE=T.G. Sheppard - Best Of
DYEAR=1900
DGENRE=
TTITLE0=Everything I Do (I Do It For You)
TTITLE1=Last Cheater's Waltz
TTITLE2=Devil In The Bottle
TTITLE3=War Is Hell (On The Homefront Too)
TTITLE4=I Loved 'em Every One
TTITLE5=Do You Wanna Go To Heaven
TTITLE6=Only One You
TTITLE7=Party Time
TTITLE8=Slow Burn
TTITLE9=I'll Be Coming Back For More
TTITLE10=Make My Day
TTITLE11=Mister D.J.
EXTD=
EXTT0=
EXTT1=
EXTT2=
EXTT3=
EXTT4=
EXTT5=
EXTT6=
EXTT7=
EXTT8=
EXTT9=
EXTT10=
EXTT11=
PLAYORDER=
